<svg xmlns="http://www.w3.org/2000/svg" width="266" height="40" viewBox="0 0 266 40">
<rect fill="none" width="266" height="40"/>
<path fill="#0E1271" d="M69.09,31.22c-3.85,3.01-7.66,5.13-11.04,6.29c3.23-1.56,6.8-4.05,10.33-7.38c9.61-9.05,15.3-20.79,12.71-26.23c-1.73-3.63-6.73-3.53-12.72-0.36C65.15,1.37,61.26,0.06,57.05,0C46.97-0.14,38.5,6.87,36.68,16.24c2.2-2.61,4.81-5.17,7.72-7.46c3.84-3.01,7.66-5.13,11.04-6.3c-3.23,1.56-6.8,4.05-10.33,7.38c-7.79,7.33-13,16.43-13.32,22.51L21.9,20L34.78,3.9h-12.7L11.33,17.34V3.9H0v32.2h11.33V22.66L22.07,36.1h10.34c1.73,3.63,6.73,3.52,12.71,0.35c3.22,2.18,7.11,3.49,11.32,3.54C66.52,40.15,75,33.12,76.82,23.77C74.62,26.37,72.01,28.93,69.09,31.22 M75.73,6.96c0.77,1.61,0.8,3.77,0.24,6.25c-1.3-3.53-3.58-6.59-6.53-8.88C72.41,3.92,74.68,4.74,75.73,6.96z M37.76,33.05c-0.77-1.61-0.81-3.77-0.24-6.25c1.3,3.53,3.59,6.59,6.53,8.88C41.09,36.09,38.82,35.27,37.76,33.05z"/>
<polyline fill="#0E1271" points="125.14,12.15 136.09,12.15 136.09,36.1 147.41,36.1 147.41,12.15 158.63,12.15 158.63,3.9 125.14,3.9 125.14,12.15"/>
<path fill="#0E1271" d="M253.81,19.68L264.52,3.9h-12.44l-4.49,6.61l-4.49-6.61h-12.43l10.7,15.78l-9.82,14.47L219.62,3.9h-14.37l-12.42,31.47l-4.38-11.31c-0.22-0.55-0.6-1.02-1.08-1.37c2.28-1.96,3.73-4.84,3.73-8.05c0-6.85-4.02-10.74-10.98-10.74h-19.33v32.2h11.33V25.38h3.43c1.32,0.02,2.45,0.83,2.89,1.98l2.96,8.74h22.48l2.21-6.36h12.7L221,36.1h21.67l4.92-7.26l4.92,7.26h12.44L253.81,19.68 M177.43,17.89h-5.33v-5.81h5.33c1.64,0,2.96,1.3,2.96,2.91C180.4,16.59,179.07,17.89,177.43,17.89z M208.64,22.41l3.79-10.88l3.79,10.88H208.64z"/>
<polyline fill="#0E1271" points="103.56,22.62 97.64,3.9 84.13,3.9 84.13,36.1 93.98,36.1 93.98,17.38 99.3,36.1 107.83,36.1 113.15,17.38 113.15,36.1 122.99,36.1 122.99,3.9 109.48,3.9 103.56,22.62"/>
<radialGradient id="grad" cx="-23.3052" cy="10.3696" r="16.7719" gradientTransform="matrix(0.976 0 0 0.9762 73.46 3.9351)" gradientUnits="userSpaceOnUse">
<stop  offset="0" style="stop-color:#FFFFFF"/>
<stop  offset="0.5" style="stop-color:#2876A6"/>
<stop  offset="1" style="stop-color:#496486"/>
</radialGradient>
<ellipse fill="url(#grad)" cx="56.71" cy="19.96" rx="10.28" ry="10.06"/>
</svg>
