<svg xmlns="http://www.w3.org/2000/svg" viewBox="0 0 96 18" enable-background="new 0 0 96 18"><g fill="#0E1271"><path d="M0 4.107v13.331h5.662v-13.331zM14.785 4.107h-6.291l-2.832 6.614 2.963 6.717h6.396l-3.276-6.717zM21.261 3.598c-3.973 0-7.193 3.224-7.193 7.201s3.22 7.201 7.193 7.201c3.972 0 7.193-3.224 7.193-7.201s-3.221-7.201-7.193-7.201zm0 9.094c-1.044 0-1.891-.848-1.891-1.893s.846-1.893 1.891-1.893 1.891.848 1.891 1.893-.847 1.893-1.891 1.893zM50.386 4.107l-4.221 12.177-1.966-12.177h-5.086l-1.678 5.117-1.678-5.117h-5.033l-2.044 13.331h4.98l.84-4.671 1.362 4.671h3.146l1.416-4.671.681 4.671h10.46l1.573-6.193 1.547 6.193h5.82l-4.666-13.331zM80.812 10.03c-.888-.771-2.095-1.11-3.215-1.321-1.328-.25-.959-1.098-.171-1.063 1.875.082 3.343 1.155 3.343 1.155l1.389-3.644c-2.96-1.855-6.317-1.869-8.442-.682-.375.21-.699.446-.982.7v-5.175h-5.204v4.107h-8.598v4.987h3.093v8.345h5.57v-12.204h5.07c-2.019 1.883-1.675 4.769-.014 6.211.887.771 2.108 1.07 3.229 1.281 1.327.25.959 1.166.17 1.194-1.861.066-4.089-1.496-4.089-1.496l-1.442 3.595c2.804 1.889 7.103 2.099 9.228.98 3.188-1.678 2.972-5.315 1.065-6.97zM90.494 4.107v8.135c0 .932-1.389.932-1.389 0v-8.135h-5.531v8.818c0 .42 0 4.697 6.265 4.697 6.161 0 6.161-4.277 6.161-4.697v-8.818h-5.506z"/></g></svg>