<svg xmlns="http://www.w3.org/2000/svg" xmlns:xlink="http://www.w3.org/1999/xlink" viewBox="0 0 100 100"><defs><style>.cls-1{fill:url(#名称未設定グラデーション_24);}.cls-2{fill:url(#名称未設定グラデーション_24-2);}.cls-3{fill:url(#名称未設定グラデーション_24-3);}.cls-4{fill:url(#名称未設定グラデーション_24-4);}</style><linearGradient id="名称未設定グラデーション_24" x1="50" y1="90.24" x2="50" y2="26.53" gradientUnits="userSpaceOnUse"><stop offset="0" stop-color="#464646"/><stop offset="1" stop-color="#8a8a8b"/></linearGradient><linearGradient id="名称未設定グラデーション_24-2" x1="60.84" y1="23.15" x2="60.84" y2="6.34" xlink:href="#名称未設定グラデーション_24"/><linearGradient id="名称未設定グラデーション_24-3" x1="50" y1="15.49" x2="50" y2="5.6" xlink:href="#名称未設定グラデーション_24"/><linearGradient id="名称未設定グラデーション_24-4" x1="39.11" y1="23.03" x2="39.11" y2="6.34" xlink:href="#名称未設定グラデーション_24"/></defs><title>contact_icn_PSSR</title><g id="レイヤー_6" data-name="レイヤー 6"><path class="cls-1" d="M88.91,73.57c-1.72-5.33-12.4-9.33-16.53-10.67S59.3,58.57,59.3,58.57l-.63,0V54.38a17.72,17.72,0,0,0,5.44-9.08c.18.13.4-.93.68-1.24a14.31,14.31,0,0,0,3.35-9.73,2.17,2.17,0,0,0-2-2.44c.1-1.34.13-2.16.13-2.16v-3.2h0c-1.4.28-10.93,1.12-11.77,1.12,0,0-3,.22-4.53.22s-4.54-.22-4.54-.22c-.84,0-10.37-.84-11.77-1.12v3.2s0,.82.13,2.16a2.17,2.17,0,0,0-2,2.44,14.31,14.31,0,0,0,3.35,9.73c.28.31.5,1.36.68,1.24a17.72,17.72,0,0,0,5.44,9.08v4.24l-.63,0s-9,3-13.09,4.33S12.81,68.24,11.09,73.57,8.33,90.24,8.33,90.24H91.67S90.63,78.91,88.91,73.57Z"/><path class="cls-2" d="M67.71,23.15A17.71,17.71,0,0,0,55.07,6.34L54,15.73c5.2.88,5.94,3.74,12.88,6.85A2.07,2.07,0,0,1,67.71,23.15Z"/><path class="cls-3" d="M50.15,15.45l.94,0,1-9.73a16.29,16.29,0,0,0-4.23,0l1,9.75C49.31,15.47,49.71,15.45,50.15,15.45Z"/><path class="cls-4" d="M45.93,15.87l-1-9.53A17.71,17.71,0,0,0,32.3,23a2,2,0,0,1,.83-.45C39.86,20.32,41,17,45.93,15.87Z"/></g></svg>