<svg xmlns="http://www.w3.org/2000/svg" xmlns:xlink="http://www.w3.org/1999/xlink" viewBox="0 0 100 100"><defs><style>.cls-1{fill:url(#名称未設定グラデーション_24);}.cls-2{fill:url(#名称未設定グラデーション_24-2);}.cls-3{fill:url(#名称未設定グラデーション_24-3);}.cls-4{fill:url(#名称未設定グラデーション_24-4);}.cls-5{fill:url(#名称未設定グラデーション_24-5);}</style><linearGradient id="名称未設定グラデーション_24" x1="25.96" y1="74.24" x2="25.96" y2="34.24" gradientUnits="userSpaceOnUse"><stop offset="0" stop-color="#464646"/><stop offset="1" stop-color="#8a8a8b"/></linearGradient><linearGradient id="名称未設定グラデーション_24-2" x1="78.08" y1="29.66" x2="78.08" y2="8.85" xlink:href="#名称未設定グラデーション_24"/><linearGradient id="名称未設定グラデーション_24-3" x1="66.54" y1="66.04" x2="66.54" y2="25.37" xlink:href="#名称未設定グラデーション_24"/><linearGradient id="名称未設定グラデーション_24-4" x1="55.79" y1="76.66" x2="55.79" y2="68.01" xlink:href="#名称未設定グラデーション_24"/><linearGradient id="名称未設定グラデーション_24-5" x1="52.76" y1="90.24" x2="52.76" y2="77.14" xlink:href="#名称未設定グラデーション_24"/></defs><title>contact_icn_parts</title><g id="レイヤー_2" data-name="レイヤー 2"><path class="cls-1" d="M32.23,42.24l6.6,12-6.6,12H19.69l-6.6-12,6.6-12H32.23m3.73-8H16a1.87,1.87,0,0,0-1.48.88l-10,18.25a2,2,0,0,0,0,1.75l10,18.25a1.87,1.87,0,0,0,1.48.88H36a1.87,1.87,0,0,0,1.48-.88l10-18.25a2,2,0,0,0,0-1.75l-10-18.25A1.87,1.87,0,0,0,36,34.24Z"/><path class="cls-2" d="M93.11,19.76,67.19,9a2,2,0,0,0-.76-.15,2,2,0,0,0-1.86,1.23L62,16.15A2,2,0,0,0,63,18.76L89,29.51a2,2,0,0,0,.76.15,2,2,0,0,0,1.86-1.23l2.58-6.07A2,2,0,0,0,93.11,19.76Z"/><polygon class="cls-3" points="52.31 66.03 65.59 63.21 80.77 30.7 67.93 25.38 52.31 66.03"/><polygon class="cls-4" points="48.22 76.66 60.54 74.04 63.35 68.01 50.5 70.75 48.22 76.66"/><path class="cls-5" d="M46,82.54A30.56,30.56,0,0,0,46.69,89l3,1.24a24.41,24.41,0,0,0,5.18-4l4.72-9.08L47.18,79.81Z"/></g></svg>