<svg xmlns="http://www.w3.org/2000/svg" xmlns:xlink="http://www.w3.org/1999/xlink" viewBox="0 0 100 100"><defs><style>.cls-1{fill:url(#名称未設定グラデーション_24);}.cls-2{fill:#fff;}</style><linearGradient id="名称未設定グラデーション_24" x1="50" y1="90.24" x2="50" y2="12.14" gradientUnits="userSpaceOnUse"><stop offset="0" stop-color="#464646"/><stop offset="1" stop-color="#8a8a8b"/></linearGradient></defs><title>contact_icn_sales</title><g id="レイヤー_7" data-name="レイヤー 7"><path class="cls-1" d="M88.91,73.57c-1.72-5.33-12.4-9.33-16.53-10.67S59.3,58.57,59.3,58.57l-.63,0V54.38a17.72,17.72,0,0,0,5.44-9.08c.18.13.4-.93.68-1.24a14.31,14.31,0,0,0,3.35-9.73,2.26,2.26,0,0,0-1-2.08,8.11,8.11,0,0,0,.32-1.14,76.68,76.68,0,0,0,.85-16.39l-1.54.85c-1.54.85-.68.17-.68.17a13.92,13.92,0,0,0,1.4-3.59,27.26,27.26,0,0,1-4.59.77c-.94-.09-3.83-.17-3.83-.17-1.64-.21-2.84-.24-6.18-.43a25.57,25.57,0,0,0-2.85-.16,14.23,14.23,0,0,0-4,.33c-7,1.14-12.17,5.41-12.34,13.41h0v3.83s0,.82.13,2.16a2.17,2.17,0,0,0-2,2.44,14.31,14.31,0,0,0,3.35,9.73c.28.31.5,1.36.68,1.24a17.72,17.72,0,0,0,5.44,9.08v4.24l-.63,0s-9,3-13.09,4.33S12.81,68.24,11.09,73.57,8.33,90.24,8.33,90.24H91.67S90.63,78.91,88.91,73.57Z"/><polygon class="cls-2" points="53.5 69 49.97 70.24 46.5 69 46.5 63.24 53.5 63.24 53.5 69"/><polygon class="cls-2" points="50.47 93.73 55.5 92.62 53.53 72.24 50 73.78 46.62 72.51 44.5 92.62 49.53 93.73 49.53 93.9 50 93.81 50.47 93.9 50.47 93.73"/></g></svg>