<svg xmlns="http://www.w3.org/2000/svg" xmlns:xlink="http://www.w3.org/1999/xlink" viewBox="0 0 100 100"><defs><style>.cls-1{fill:url(#名称未設定グラデーション_24);}</style><linearGradient id="名称未設定グラデーション_24" x1="50" y1="92" x2="50" y2="8" gradientUnits="userSpaceOnUse"><stop offset="0" stop-color="#464646"/><stop offset="1" stop-color="#8a8a8b"/></linearGradient></defs><title>contact_icn_setting</title><g id="レイヤー_1" data-name="レイヤー 1"><path class="cls-1" d="M90,56.77a2,2,0,0,0,2-2V45.23a2,2,0,0,0-2-2H83.8a2.91,2.91,0,0,1-2.6-1.91l-3-7.24a2.88,2.88,0,0,1,.48-3.18l4.39-4.39a2,2,0,0,0,0-2.83l-6.75-6.75a2,2,0,0,0-2.83,0l-4.39,4.39a2.88,2.88,0,0,1-3.18.48l-7.24-3a2.91,2.91,0,0,1-1.91-2.6V10a2,2,0,0,0-2-2H45.23a2,2,0,0,0-2,2v6.2a2.91,2.91,0,0,1-1.91,2.6l-7.24,3a2.88,2.88,0,0,1-3.18-.48l-4.39-4.39a2,2,0,0,0-2.83,0l-6.75,6.75a2,2,0,0,0,0,2.83l4.39,4.39a2.88,2.88,0,0,1,.48,3.18l-3,7.24a2.91,2.91,0,0,1-2.6,1.91H10a2,2,0,0,0-2,2v9.55a2,2,0,0,0,2,2h6.2a2.91,2.91,0,0,1,2.6,1.91l3,7.24a2.88,2.88,0,0,1-.48,3.18l-4.39,4.39a2,2,0,0,0,0,2.83l6.75,6.75a2,2,0,0,0,2.83,0l4.39-4.39a2.88,2.88,0,0,1,3.18-.48l7.24,3a2.91,2.91,0,0,1,1.91,2.6V90a2,2,0,0,0,2,2h9.55a2,2,0,0,0,2-2V83.8a2.91,2.91,0,0,1,1.91-2.6l7.24-3a2.88,2.88,0,0,1,3.18.48l4.39,4.39a2,2,0,0,0,2.83,0l6.75-6.75a2,2,0,0,0,0-2.83l-4.39-4.39a2.88,2.88,0,0,1-.48-3.18l3-7.24a2.91,2.91,0,0,1,2.6-1.91ZM50.63,68.37A18.67,18.67,0,1,1,69.3,49.7,18.67,18.67,0,0,1,50.63,68.37Z"/></g></svg>