<svg xmlns="http://www.w3.org/2000/svg" xmlns:xlink="http://www.w3.org/1999/xlink" viewBox="0 0 100 100"><defs><style>.cls-1{fill:url(#名称未設定グラデーション_24);}.cls-2{fill:url(#名称未設定グラデーション_24-2);}.cls-3{fill:url(#名称未設定グラデーション_24-3);}.cls-4{fill:url(#名称未設定グラデーション_24-4);}.cls-5{fill:url(#名称未設定グラデーション_24-5);}</style><linearGradient id="名称未設定グラデーション_24" x1="50" y1="90.24" x2="50" y2="26.53" gradientUnits="userSpaceOnUse"><stop offset="0" stop-color="#464646"/><stop offset="1" stop-color="#8a8a8b"/></linearGradient><linearGradient id="名称未設定グラデーション_24-2" x1="60.84" y1="23.15" x2="60.84" y2="6.34" xlink:href="#名称未設定グラデーション_24"/><linearGradient id="名称未設定グラデーション_24-3" x1="50" y1="15.49" x2="50" y2="5.6" xlink:href="#名称未設定グラデーション_24"/><linearGradient id="名称未設定グラデーション_24-4" x1="39.11" y1="23.03" x2="39.11" y2="6.34" xlink:href="#名称未設定グラデーション_24"/><linearGradient id="名称未設定グラデーション_24-5" x1="73.63" y1="85.24" x2="73.63" y2="43.24" xlink:href="#名称未設定グラデーション_24"/></defs><title>contact_icn_service</title><g id="レイヤー_3" data-name="レイヤー 3"><path class="cls-1" d="M88.91,73.57c-1.12-3.47-6-6.36-10.44-8.34L69.55,84.85a5.12,5.12,0,0,1-3.61,2.82l-2.9.51a4.07,4.07,0,0,1-.71.06,4.42,4.42,0,0,1-3.94-2.51l-1.31-2.82a5.26,5.26,0,0,1,.15-4.53L66.71,61,59.3,58.57l-.63,0V54.38a17.72,17.72,0,0,0,5.44-9.08c.18.13.4-.93.68-1.24a14.31,14.31,0,0,0,3.35-9.73,2.17,2.17,0,0,0-2-2.44c.1-1.34.13-2.16.13-2.16v-3.2h0c-1.4.28-10.93,1.12-11.77,1.12,0,0-3,.22-4.53.22s-4.54-.22-4.54-.22c-.84,0-10.37-.84-11.77-1.12v3.2s0,.82.13,2.16a2.17,2.17,0,0,0-2,2.44,14.31,14.31,0,0,0,3.35,9.73c.28.31.5,1.36.68,1.24a17.72,17.72,0,0,0,5.44,9.08v4.24l-.63,0s-9,3-13.09,4.33S12.81,68.24,11.09,73.57,8.33,90.24,8.33,90.24H91.67S90.63,78.91,88.91,73.57Z"/><path class="cls-2" d="M67.71,23.15A17.71,17.71,0,0,0,55.07,6.34L54,15.73c5.2.88,5.94,3.74,12.88,6.85A2.07,2.07,0,0,1,67.71,23.15Z"/><path class="cls-3" d="M50.15,15.45l.94,0,1-9.73a16.29,16.29,0,0,0-4.23,0l1,9.75C49.31,15.47,49.71,15.45,50.15,15.45Z"/><path class="cls-4" d="M45.93,15.87l-1-9.53A17.71,17.71,0,0,0,32.3,23a2,2,0,0,1,.83-.45C39.86,20.32,41,17,45.93,15.87Z"/><path class="cls-5" d="M71.32,57a2,2,0,0,1,0,1.77l-11.51,21a2.29,2.29,0,0,0-.06,1.83l1.31,2.82a1.41,1.41,0,0,0,1.22.77l.18,0,2.9-.51a2.15,2.15,0,0,0,1.4-1.11l10-21.88a1.81,1.81,0,0,1,1.41-1l4.26-.19a1.9,1.9,0,0,0,1.45-1l3.57-7.15a2.06,2.06,0,0,0-.07-1.79L85.73,48a.6.6,0,0,0-.49-.34.58.58,0,0,0-.49.4l-2.15,4.5c-.4.87-.49,1.2-.66,1.2h0L78,53.66h-.27c-.3,0-.37-.07-.6-.46L74.72,50c-.17-.21.23-.73.59-1.57l2.22-4.3c.25-.49,0-.87-.47-.87h0l-3,.14a1.9,1.9,0,0,0-1.45,1L69,51.48A2.06,2.06,0,0,0,69,53.27Z"/></g></svg>