<svg xmlns="http://www.w3.org/2000/svg" viewBox="0 0 80 12" enable-background="new 0 0 80 12"><g><path fill="none" d="M0 0h80v12h-80z"/><path fill="#0E1271" d="M20.732 9.366c-1.154.903-2.299 1.539-3.312 1.889.969-.468 2.039-1.216 3.098-2.213 2.884-2.716 4.592-6.237 3.814-7.868-.52-1.09-2.018-1.058-3.816-.107-.967-.655-2.135-1.047-3.399-1.066-3.023-.044-5.565 2.061-6.112 4.872.659-.783 1.442-1.55 2.318-2.237 1.153-.904 2.299-1.54 3.313-1.889-.97.468-2.04 1.215-3.098 2.213-2.338 2.199-3.901 4.927-3.997 6.752l-2.97-3.711 3.864-4.831h-3.812l-3.225 4.033v-4.032h-3.398v9.659h3.398v-4.032l3.225 4.031h3.103c.52 1.088 2.018 1.056 3.815.106.965.654 2.134 1.046 3.397 1.064 3.023.044 5.566-2.062 6.112-4.87-.659.783-1.443 1.55-2.318 2.237m1.992-7.279c.231.482.241 1.131.072 1.876-.391-1.058-1.076-1.977-1.96-2.664.89-.124 1.572.123 1.888.788zm-11.393 7.827c-.231-.483-.242-1.132-.071-1.876.391 1.058 1.076 1.977 1.96 2.663-.89.125-1.572-.121-1.889-.787zM37.547 3.644h3.286v7.186h3.399v-7.186h3.366v-2.473h-10.051v2.473"/><path fill="#0E1271" d="M76.157 5.904l3.213-4.733h-3.732l-1.347 1.983-1.346-1.983h-3.731l3.212 4.733-2.947 4.342-3.582-9.074h-4.312l-3.726 9.441-1.314-3.392c-.066-.165-.179-.307-.325-.41.685-.589 1.118-1.454 1.118-2.416 0-2.055-1.207-3.222-3.294-3.222h-5.802v9.659h3.398v-3.219h1.029c.397.005.735.25.868.594l.888 2.623h6.746l.664-1.908h3.809l.665 1.908h6.504l1.478-2.177 1.476 2.177h3.733l-3.343-4.926m-22.917-.538h-1.599v-1.742h1.599c.491 0 .89.391.89.872-.001.481-.399.87-.89.87zm9.363 1.356l1.138-3.264 1.137 3.264h-2.275zM31.073 6.787l-1.775-5.616h-4.054v9.659h2.953v-5.614l1.599 5.614h2.557l1.597-5.614v5.614h2.954v-9.659h-4.055l-1.776 5.616"/><radialGradient id="a" cx="117.59" cy="132.59" r="5.263" gradientTransform="matrix(.933 0 0 .933 -94.533 -119.533)" gradientUnits="userSpaceOnUse"><stop offset="0" stop-color="#fff"/><stop offset=".5" stop-color="#2876A6"/><stop offset="1" stop-color="#496486"/></radialGradient><ellipse fill="url(#a)" cx="17.016" cy="5.988" rx="3.085" ry="3.018"/></g></svg>