<svg xmlns="http://www.w3.org/2000/svg" width="106" height="16" viewBox="0 0 106 16" enable-background="new 0 0 106 16"><g><path fill="none" d="M0 0h106v16h-106z"/><path fill="#fff" d="M27.643 12.488c-1.538 1.204-3.066 2.052-4.416 2.518 1.292-.625 2.719-1.621 4.131-2.95 3.846-3.621 6.123-8.316 5.085-10.491-.694-1.454-2.691-1.411-5.087-.143-1.289-.873-2.846-1.397-4.531-1.421-4.031-.058-7.421 2.748-8.149 6.495.878-1.045 1.923-2.067 3.091-2.982 1.537-1.206 3.065-2.054 4.417-2.519-1.294.625-2.72 1.62-4.131 2.951-3.117 2.932-5.202 6.571-5.329 9.004l-3.963-4.948 5.152-6.441h-5.083l-4.299 5.376v-5.376h-4.531v12.878h4.531v-5.375l4.299 5.375h4.137c.693 1.451 2.691 1.408 5.086.142 1.287.872 2.845 1.395 4.529 1.418 4.031.059 7.422-2.749 8.15-6.493-.877 1.043-1.923 2.067-3.089 2.982m2.655-9.705c.308.642.322 1.508.095 2.501-.522-1.41-1.434-2.636-2.613-3.552 1.188-.165 2.097.165 2.518 1.051zm-15.19 10.436c-.308-.644-.322-1.51-.094-2.501.521 1.41 1.435 2.636 2.614 3.551-1.187.166-2.097-.163-2.52-1.05zM50.063 4.859h4.382v9.58h4.531v-9.58h4.489v-3.298h-13.402v3.298"/><path fill="#fff" d="M101.542 7.871l4.284-6.31h-4.976l-1.796 2.645-1.795-2.645h-4.975l4.282 6.31-3.929 5.789-4.774-12.099h-5.749l-4.968 12.587-1.752-4.523c-.088-.22-.239-.409-.434-.547.914-.785 1.491-1.938 1.491-3.221 0-2.74-1.609-4.296-4.391-4.296h-7.735v12.878h4.531v-4.288h1.372c.53.007.98.333 1.158.791l1.184 3.497h8.995l.886-2.544h5.079l.887 2.544h8.672l1.97-2.903 1.968 2.903h4.973l-4.458-6.568m-30.556-.716h-2.132v-2.324h2.132c.655 0 1.186.521 1.186 1.162 0 .643-.531 1.162-1.186 1.162zm12.485 1.807l1.518-4.351 1.516 4.351h-3.034zM41.431 9.05l-2.367-7.488h-5.406v12.877h3.939v-7.485l2.131 7.485h3.41l2.129-7.485v7.485h3.938v-12.877h-5.406l-2.368 7.488"/><radialGradient id="a" cx="20.289" cy="5.623" r="6.549" gradientUnits="userSpaceOnUse"><stop offset="0" stop-color="#fff"/><stop offset=".5" stop-color="#2876A6"/><stop offset="1" stop-color="#496486"/></radialGradient><ellipse fill="url(#a)" cx="22.687" cy="7.984" rx="4.113" ry="4.024"/></g></svg>
