<?xml version="1.0" encoding="utf-8"?>
<!-- Generator: Adobe Illustrator 16.0.0, SVG Export Plug-In . SVG Version: 6.00 Build 0)  -->
<!DOCTYPE svg PUBLIC "-//W3C//DTD SVG 1.1//EN" "http://www.w3.org/Graphics/SVG/1.1/DTD/svg11.dtd">
<svg version="1.1" id="レイヤー_1" xmlns="http://www.w3.org/2000/svg" xmlns:xlink="http://www.w3.org/1999/xlink" x="0px"
	 y="0px" width="404px" height="27px" viewBox="0 0 404 27" enable-background="new 0 0 404 27" xml:space="preserve">
	<g>
	<g>
		<g><rect x="377" fill="#999999" width="1" height="3"/></g>
		<g><rect x="364" fill="#999999" width="1" height="3"/></g>
		<g><rect x="351" fill="#999999" width="1" height="3"/></g>
		<g><rect x="338" fill="#999999" width="1" height="3"/></g>
		<g><rect x="325" fill="#999999" width="1" height="3"/></g>
		<g><rect x="312" fill="#999999" width="1" height="3"/></g>
		<g><rect x="299" fill="#999999" width="1" height="3"/></g>
		<g><rect x="286" fill="#999999" width="1" height="3"/></g>
		<g><rect x="273" fill="#999999" width="1" height="3"/></g>
		<g><rect x="260" fill="#999999" width="1" height="3"/></g>
		<g><rect x="247" fill="#999999" width="1" height="3"/></g>
		<g><rect x="234" fill="#999999" width="1" height="3"/></g>
		<g><rect x="221" fill="#999999" width="1" height="3"/></g>
		<g><rect x="208" fill="#999999" width="1" height="3"/></g>
		<g><rect x="195" fill="#999999" width="1" height="3"/></g>
		<g><rect x="182" fill="#999999" width="1" height="3"/></g>
		<g><rect x="169" fill="#999999" width="1" height="3"/></g>
		<g><rect x="156" fill="#999999" width="1" height="3"/></g>
		<g><rect x="143" fill="#999999" width="1" height="3"/></g>
		<g><rect x="130" fill="#999999" width="1" height="3"/></g>
		<g><rect x="117" fill="#999999" width="1" height="3"/></g>
		<g><rect x="104" fill="#999999" width="1" height="3"/></g>
		<g><rect x="91" fill="#999999" width="1" height="3"/></g>
		<g><rect x="78" fill="#999999" width="1" height="3"/></g>
		<g><rect x="65" fill="#999999" width="1" height="3"/></g>
		<g><rect x="52" fill="#999999" width="1" height="3"/></g>
		<g><rect x="39" fill="#999999" width="1" height="3"/></g>
		<g><rect x="26" fill="#999999" width="1" height="3"/></g>
		<g><rect x="13" fill="#999999" width="1" height="3"/></g>
		<g><rect fill="#999999" width="1" height="3"/></g>
	</g>
  <text transform="matrix(1 0 0 1 3.2695 13)"   fill="#999999" font-family="'ArialMT'" font-size="12">1</text>
  <text transform="matrix(1 0 0 1 55.2695 13)"  fill="#999999" font-family="'ArialMT'" font-size="12">5</text>
	<text transform="matrix(1 0 0 1 116.9326 13)" fill="#999999" font-family="'ArialMT'" font-size="12">10</text>
	<text transform="matrix(1 0 0 1 181.9326 13)" fill="#999999" font-family="'ArialMT'" font-size="12">15</text>
	<text transform="matrix(1 0 0 1 246.9326 13)" fill="#999999" font-family="'ArialMT'" font-size="12">20</text>
	<text transform="matrix(1 0 0 1 311.9326 13)" fill="#999999" font-family="'ArialMT'" font-size="12">25</text>
	<text transform="matrix(1 0 0 1 364.3 13)" fill="#999999" font-family="'ArialMT'" font-size="12">29</text>
</g>
</svg>
